  0
SECTION
  2
BLOCKS
  0
ENDSEC
  0
SECTION
  2
ENTITIES
  0
LINE
  8
0
 10
105.874
 20
-110.486
 11
106.368
 21
-110.424
  0
LINE
  8
0
 10
106.368
 20
-110.424
 11
106.854
 21
-110.313
  0
LINE
  8
0
 10
106.854
 20
-110.313
 11
107.327
 21
-110.154
  0
LINE
  8
0
 10
107.327
 20
-110.154
 11
107.781
 21
-109.949
  0
LINE
  8
0
 10
107.781
 20
-109.949
 11
108.213
 21
-109.7
  0
LINE
  8
0
 10
108.213
 20
-109.7
 11
108.617
 21
-109.409
  0
LINE
  8
0
 10
108.617
 20
-109.409
 11
108.991
 21
-109.079
  0
LINE
  8
0
 10
108.991
 20
-109.079
 11
109.33
 21
-108.714
  0
LINE
  8
0
 10
109.33
 20
-108.714
 11
109.631
 21
-108.317
  0
LINE
  8
0
 10
109.631
 20
-108.317
 11
109.891
 21
-107.891
  0
LINE
  8
0
 10
109.891
 20
-107.891
 11
110.107
 21
-107.442
  0
LINE
  8
0
 10
110.107
 20
-107.442
 11
110.278
 21
-106.974
  0
LINE
  8
0
 10
110.278
 20
-106.974
 11
110.401
 21
-106.491
  0
LINE
  8
0
 10
110.401
 20
-106.491
 11
110.475
 21
-105.998
  0
LINE
  8
0
 10
110.475
 20
-105.998
 11
110.5
 21
-105.5
  0
LINE
  8
0
 10
110.5
 20
-105.5
 11
110.475
 21
-105.002
  0
LINE
  8
0
 10
110.475
 20
-105.002
 11
110.401
 21
-104.509
  0
LINE
  8
0
 10
110.401
 20
-104.509
 11
110.278
 21
-104.026
  0
LINE
  8
0
 10
110.278
 20
-104.026
 11
110.107
 21
-103.558
  0
LINE
  8
0
 10
110.107
 20
-103.558
 11
109.891
 21
-103.109
  0
LINE
  8
0
 10
109.891
 20
-103.109
 11
109.631
 21
-102.683
  0
LINE
  8
0
 10
109.631
 20
-102.683
 11
109.33
 21
-102.286
  0
LINE
  8
0
 10
109.33
 20
-102.286
 11
108.991
 21
-101.921
  0
LINE
  8
0
 10
108.991
 20
-101.921
 11
90
 21
-82.9295
  0
LINE
  8
0
 10
90
 20
-82.9295
 11
90
 21
-63
  0
LINE
  8
0
 10
90
 20
-63
 11
100
 21
-53
  0
LINE
  8
0
 10
100
 20
-53
 11
100
 21
-15
  0
LINE
  8
0
 10
100
 20
-15
 11
90
 21
-5
  0
LINE
  8
0
 10
90
 20
-5
 11
90
 21
5
  0
LINE
  8
0
 10
90
 20
5
 11
100
 21
15
  0
LINE
  8
0
 10
100
 20
15
 11
100
 21
53
  0
LINE
  8
0
 10
100
 20
53
 11
90
 21
63
  0
LINE
  8
0
 10
90
 20
63
 11
90
 21
82.9295
  0
LINE
  8
0
 10
90
 20
82.9295
 11
108.991
 21
101.921
  0
LINE
  8
0
 10
108.991
 20
101.921
 11
109.33
 21
102.286
  0
LINE
  8
0
 10
109.33
 20
102.286
 11
109.631
 21
102.683
  0
LINE
  8
0
 10
109.631
 20
102.683
 11
109.891
 21
103.109
  0
LINE
  8
0
 10
109.891
 20
103.109
 11
110.107
 21
103.558
  0
LINE
  8
0
 10
110.107
 20
103.558
 11
110.278
 21
104.026
  0
LINE
  8
0
 10
110.278
 20
104.026
 11
110.401
 21
104.509
  0
LINE
  8
0
 10
110.401
 20
104.509
 11
110.475
 21
105.002
  0
LINE
  8
0
 10
110.475
 20
105.002
 11
110.5
 21
105.5
  0
LINE
  8
0
 10
110.5
 20
105.5
 11
110.475
 21
105.998
  0
LINE
  8
0
 10
110.475
 20
105.998
 11
110.401
 21
106.491
  0
LINE
  8
0
 10
110.401
 20
106.491
 11
110.278
 21
106.974
  0
LINE
  8
0
 10
110.278
 20
106.974
 11
110.107
 21
107.442
  0
LINE
  8
0
 10
110.107
 20
107.442
 11
109.891
 21
107.891
  0
LINE
  8
0
 10
109.891
 20
107.891
 11
109.631
 21
108.317
  0
LINE
  8
0
 10
109.631
 20
108.317
 11
109.33
 21
108.714
  0
LINE
  8
0
 10
109.33
 20
108.714
 11
108.991
 21
109.079
  0
LINE
  8
0
 10
108.991
 20
109.079
 11
108.617
 21
109.409
  0
LINE
  8
0
 10
108.617
 20
109.409
 11
108.213
 21
109.7
  0
LINE
  8
0
 10
108.213
 20
109.7
 11
107.781
 21
109.949
  0
LINE
  8
0
 10
107.781
 20
109.949
 11
107.327
 21
110.154
  0
LINE
  8
0
 10
107.327
 20
110.154
 11
106.854
 21
110.313
  0
LINE
  8
0
 10
106.854
 20
110.313
 11
106.368
 21
110.424
  0
LINE
  8
0
 10
106.368
 20
110.424
 11
105.874
 21
110.486
  0
LINE
  8
0
 10
105.874
 20
110.486
 11
105.375
 21
110.498
  0
LINE
  8
0
 10
105.375
 20
110.498
 11
104.878
 21
110.461
  0
LINE
  8
0
 10
104.878
 20
110.461
 11
104.387
 21
110.375
  0
LINE
  8
0
 10
104.387
 20
110.375
 11
103.908
 21
110.24
  0
LINE
  8
0
 10
103.908
 20
110.24
 11
103.444
 21
110.058
  0
LINE
  8
0
 10
103.444
 20
110.058
 11
103
 21
109.83
  0
LINE
  8
0
 10
103
 20
109.83
 11
102.581
 21
109.56
  0
LINE
  8
0
 10
102.581
 20
109.56
 11
102.192
 21
109.249
  0
LINE
  8
0
 10
102.192
 20
109.249
 11
101.835
 21
108.901
  0
LINE
  8
0
 10
101.835
 20
108.901
 11
77.9339
 21
85
  0
LINE
  8
0
 10
77.9339
 20
85
 11
-77.9295
 21
85
  0
LINE
  8
0
 10
-77.9295
 20
85
 11
-102.009
 21
109.079
  0
LINE
  8
0
 10
-102.009
 20
109.079
 11
-102.383
 21
109.409
  0
LINE
  8
0
 10
-102.383
 20
109.409
 11
-102.787
 21
109.7
  0
LINE
  8
0
 10
-102.787
 20
109.7
 11
-103.219
 21
109.949
  0
LINE
  8
0
 10
-103.219
 20
109.949
 11
-103.673
 21
110.154
  0
LINE
  8
0
 10
-103.673
 20
110.154
 11
-104.146
 21
110.313
  0
LINE
  8
0
 10
-104.146
 20
110.313
 11
-104.632
 21
110.424
  0
LINE
  8
0
 10
-104.632
 20
110.424
 11
-105.126
 21
110.486
  0
LINE
  8
0
 10
-105.126
 20
110.486
 11
-105.625
 21
110.498
  0
LINE
  8
0
 10
-105.625
 20
110.498
 11
-106.122
 21
110.461
  0
LINE
  8
0
 10
-106.122
 20
110.461
 11
-106.613
 21
110.375
  0
LINE
  8
0
 10
-106.613
 20
110.375
 11
-107.092
 21
110.24
  0
LINE
  8
0
 10
-107.092
 20
110.24
 11
-107.556
 21
110.058
  0
LINE
  8
0
 10
-107.556
 20
110.058
 11
-108
 21
109.83
  0
LINE
  8
0
 10
-108
 20
109.83
 11
-108.419
 21
109.56
  0
LINE
  8
0
 10
-108.419
 20
109.56
 11
-108.808
 21
109.249
  0
LINE
  8
0
 10
-108.808
 20
109.249
 11
-109.165
 21
108.901
  0
LINE
  8
0
 10
-109.165
 20
108.901
 11
-109.486
 21
108.519
  0
LINE
  8
0
 10
-109.486
 20
108.519
 11
-109.766
 21
108.107
  0
LINE
  8
0
 10
-109.766
 20
108.107
 11
-110.005
 21
107.669
  0
LINE
  8
0
 10
-110.005
 20
107.669
 11
-110.198
 21
107.21
  0
LINE
  8
0
 10
-110.198
 20
107.21
 11
-110.345
 21
106.734
  0
LINE
  8
0
 10
-110.345
 20
106.734
 11
-110.444
 21
106.245
  0
LINE
  8
0
 10
-110.444
 20
106.245
 11
-110.494
 21
105.749
  0
LINE
  8
0
 10
-110.494
 20
105.749
 11
-110.494
 21
105.251
  0
LINE
  8
0
 10
-110.494
 20
105.251
 11
-110.444
 21
104.755
  0
LINE
  8
0
 10
-110.444
 20
104.755
 11
-110.345
 21
104.266
  0
LINE
  8
0
 10
-110.345
 20
104.266
 11
-110.198
 21
103.79
  0
LINE
  8
0
 10
-110.198
 20
103.79
 11
-110.005
 21
103.331
  0
LINE
  8
0
 10
-110.005
 20
103.331
 11
-109.766
 21
102.893
  0
LINE
  8
0
 10
-109.766
 20
102.893
 11
-109.486
 21
102.481
  0
LINE
  8
0
 10
-109.486
 20
102.481
 11
-109.165
 21
102.099
  0
LINE
  8
0
 10
-109.165
 20
102.099
 11
-90
 21
82.9339
  0
LINE
  8
0
 10
-90
 20
82.9339
 11
-90
 21
63
  0
LINE
  8
0
 10
-90
 20
63
 11
-100
 21
53
  0
LINE
  8
0
 10
-100
 20
53
 11
-100
 21
15
  0
LINE
  8
0
 10
-100
 20
15
 11
-90
 21
5
  0
LINE
  8
0
 10
-90
 20
5
 11
-90
 21
-5
  0
LINE
  8
0
 10
-90
 20
-5
 11
-100
 21
-15
  0
LINE
  8
0
 10
-100
 20
-15
 11
-100
 21
-53
  0
LINE
  8
0
 10
-100
 20
-53
 11
-90
 21
-63
  0
LINE
  8
0
 10
-90
 20
-63
 11
-90
 21
-82.9339
  0
LINE
  8
0
 10
-90
 20
-82.9339
 11
-109.165
 21
-102.099
  0
LINE
  8
0
 10
-109.165
 20
-102.099
 11
-109.486
 21
-102.481
  0
LINE
  8
0
 10
-109.486
 20
-102.481
 11
-109.766
 21
-102.893
  0
LINE
  8
0
 10
-109.766
 20
-102.893
 11
-110.005
 21
-103.331
  0
LINE
  8
0
 10
-110.005
 20
-103.331
 11
-110.198
 21
-103.79
  0
LINE
  8
0
 10
-110.198
 20
-103.79
 11
-110.345
 21
-104.266
  0
LINE
  8
0
 10
-110.345
 20
-104.266
 11
-110.444
 21
-104.755
  0
LINE
  8
0
 10
-110.444
 20
-104.755
 11
-110.494
 21
-105.251
  0
LINE
  8
0
 10
-110.494
 20
-105.251
 11
-110.494
 21
-105.749
  0
LINE
  8
0
 10
-110.494
 20
-105.749
 11
-110.444
 21
-106.245
  0
LINE
  8
0
 10
-110.444
 20
-106.245
 11
-110.345
 21
-106.734
  0
LINE
  8
0
 10
-110.345
 20
-106.734
 11
-110.198
 21
-107.21
  0
LINE
  8
0
 10
-110.198
 20
-107.21
 11
-110.005
 21
-107.669
  0
LINE
  8
0
 10
-110.005
 20
-107.669
 11
-109.766
 21
-108.107
  0
LINE
  8
0
 10
-109.766
 20
-108.107
 11
-109.486
 21
-108.519
  0
LINE
  8
0
 10
-109.486
 20
-108.519
 11
-109.165
 21
-108.901
  0
LINE
  8
0
 10
-109.165
 20
-108.901
 11
-108.808
 21
-109.249
  0
LINE
  8
0
 10
-108.808
 20
-109.249
 11
-108.419
 21
-109.56
  0
LINE
  8
0
 10
-108.419
 20
-109.56
 11
-108
 21
-109.83
  0
LINE
  8
0
 10
-108
 20
-109.83
 11
-107.556
 21
-110.058
  0
LINE
  8
0
 10
-107.556
 20
-110.058
 11
-107.092
 21
-110.24
  0
LINE
  8
0
 10
-107.092
 20
-110.24
 11
-106.613
 21
-110.375
  0
LINE
  8
0
 10
-106.613
 20
-110.375
 11
-106.122
 21
-110.461
  0
LINE
  8
0
 10
-106.122
 20
-110.461
 11
-105.625
 21
-110.498
  0
LINE
  8
0
 10
-105.625
 20
-110.498
 11
-105.126
 21
-110.486
  0
LINE
  8
0
 10
-105.126
 20
-110.486
 11
-104.632
 21
-110.424
  0
LINE
  8
0
 10
-104.632
 20
-110.424
 11
-104.146
 21
-110.313
  0
LINE
  8
0
 10
-104.146
 20
-110.313
 11
-103.673
 21
-110.154
  0
LINE
  8
0
 10
-103.673
 20
-110.154
 11
-103.219
 21
-109.949
  0
LINE
  8
0
 10
-103.219
 20
-109.949
 11
-102.787
 21
-109.7
  0
LINE
  8
0
 10
-102.787
 20
-109.7
 11
-102.383
 21
-109.409
  0
LINE
  8
0
 10
-102.383
 20
-109.409
 11
-102.009
 21
-109.079
  0
LINE
  8
0
 10
-102.009
 20
-109.079
 11
-77.9295
 21
-85
  0
LINE
  8
0
 10
-77.9295
 20
-85
 11
77.9339
 21
-85
  0
LINE
  8
0
 10
77.9339
 20
-85
 11
101.835
 21
-108.901
  0
LINE
  8
0
 10
101.835
 20
-108.901
 11
102.192
 21
-109.249
  0
LINE
  8
0
 10
102.192
 20
-109.249
 11
102.581
 21
-109.56
  0
LINE
  8
0
 10
102.581
 20
-109.56
 11
103
 21
-109.83
  0
LINE
  8
0
 10
103
 20
-109.83
 11
103.444
 21
-110.058
  0
LINE
  8
0
 10
103.444
 20
-110.058
 11
103.908
 21
-110.24
  0
LINE
  8
0
 10
103.908
 20
-110.24
 11
104.387
 21
-110.375
  0
LINE
  8
0
 10
104.387
 20
-110.375
 11
104.878
 21
-110.461
  0
LINE
  8
0
 10
104.878
 20
-110.461
 11
105.375
 21
-110.498
  0
LINE
  8
0
 10
105.375
 20
-110.498
 11
105.874
 21
-110.486
  0
LINE
  8
0
 10
105.144
 20
103.94
 11
104.7
 21
104.114
  0
LINE
  8
0
 10
104.7
 20
104.114
 11
104.327
 21
104.412
  0
LINE
  8
0
 10
104.327
 20
104.412
 11
104.058
 21
104.806
  0
LINE
  8
0
 10
104.058
 20
104.806
 11
103.918
 21
105.262
  0
LINE
  8
0
 10
103.918
 20
105.262
 11
103.918
 21
105.738
  0
LINE
  8
0
 10
103.918
 20
105.738
 11
104.058
 21
106.194
  0
LINE
  8
0
 10
104.058
 20
106.194
 11
104.327
 21
106.588
  0
LINE
  8
0
 10
104.327
 20
106.588
 11
104.7
 21
106.886
  0
LINE
  8
0
 10
104.7
 20
106.886
 11
105.144
 21
107.06
  0
LINE
  8
0
 10
105.144
 20
107.06
 11
105.62
 21
107.096
  0
LINE
  8
0
 10
105.62
 20
107.096
 11
106.085
 21
106.989
  0
LINE
  8
0
 10
106.085
 20
106.989
 11
106.498
 21
106.751
  0
LINE
  8
0
 10
106.498
 20
106.751
 11
106.822
 21
106.401
  0
LINE
  8
0
 10
106.822
 20
106.401
 11
107.029
 21
105.972
  0
LINE
  8
0
 10
107.029
 20
105.972
 11
107.1
 21
105.5
  0
LINE
  8
0
 10
107.1
 20
105.5
 11
107.029
 21
105.028
  0
LINE
  8
0
 10
107.029
 20
105.028
 11
106.822
 21
104.599
  0
LINE
  8
0
 10
106.822
 20
104.599
 11
106.498
 21
104.249
  0
LINE
  8
0
 10
106.498
 20
104.249
 11
106.085
 21
104.011
  0
LINE
  8
0
 10
106.085
 20
104.011
 11
105.62
 21
103.904
  0
LINE
  8
0
 10
105.62
 20
103.904
 11
105.144
 21
103.94
  0
LINE
  8
0
 10
-105.856
 20
103.94
 11
-106.3
 21
104.114
  0
LINE
  8
0
 10
-106.3
 20
104.114
 11
-106.673
 21
104.412
  0
LINE
  8
0
 10
-106.673
 20
104.412
 11
-106.942
 21
104.806
  0
LINE
  8
0
 10
-106.942
 20
104.806
 11
-107.082
 21
105.262
  0
LINE
  8
0
 10
-107.082
 20
105.262
 11
-107.082
 21
105.738
  0
LINE
  8
0
 10
-107.082
 20
105.738
 11
-106.942
 21
106.194
  0
LINE
  8
0
 10
-106.942
 20
106.194
 11
-106.673
 21
106.588
  0
LINE
  8
0
 10
-106.673
 20
106.588
 11
-106.3
 21
106.886
  0
LINE
  8
0
 10
-106.3
 20
106.886
 11
-105.856
 21
107.06
  0
LINE
  8
0
 10
-105.856
 20
107.06
 11
-105.38
 21
107.096
  0
LINE
  8
0
 10
-105.38
 20
107.096
 11
-104.915
 21
106.989
  0
LINE
  8
0
 10
-104.915
 20
106.989
 11
-104.502
 21
106.751
  0
LINE
  8
0
 10
-104.502
 20
106.751
 11
-104.178
 21
106.401
  0
LINE
  8
0
 10
-104.178
 20
106.401
 11
-103.971
 21
105.972
  0
LINE
  8
0
 10
-103.971
 20
105.972
 11
-103.9
 21
105.5
  0
LINE
  8
0
 10
-103.9
 20
105.5
 11
-103.971
 21
105.028
  0
LINE
  8
0
 10
-103.971
 20
105.028
 11
-104.178
 21
104.599
  0
LINE
  8
0
 10
-104.178
 20
104.599
 11
-104.502
 21
104.249
  0
LINE
  8
0
 10
-104.502
 20
104.249
 11
-104.915
 21
104.011
  0
LINE
  8
0
 10
-104.915
 20
104.011
 11
-105.38
 21
103.904
  0
LINE
  8
0
 10
-105.38
 20
103.904
 11
-105.856
 21
103.94
  0
LINE
  8
0
 10
-28
 20
35
 11
-68
 21
75
  0
LINE
  8
0
 10
-68
 20
75
 11
68
 21
75
  0
LINE
  8
0
 10
68
 20
75
 11
28
 21
35
  0
LINE
  8
0
 10
28
 20
35
 11
-28
 21
35
  0
LINE
  8
0
 10
-95.606
 20
32.4401
 11
-96.05
 21
32.6144
  0
LINE
  8
0
 10
-96.05
 20
32.6144
 11
-96.4229
 21
32.9117
  0
LINE
  8
0
 10
-96.4229
 20
32.9117
 11
-96.6915
 21
33.3058
  0
LINE
  8
0
 10
-96.6915
 20
33.3058
 11
-96.8321
 21
33.7615
  0
LINE
  8
0
 10
-96.8321
 20
33.7615
 11
-96.8321
 21
34.2385
  0
LINE
  8
0
 10
-96.8321
 20
34.2385
 11
-96.6915
 21
34.6942
  0
LINE
  8
0
 10
-96.6915
 20
34.6942
 11
-96.4229
 21
35.0883
  0
LINE
  8
0
 10
-96.4229
 20
35.0883
 11
-96.05
 21
35.3856
  0
LINE
  8
0
 10
-96.05
 20
35.3856
 11
-95.606
 21
35.5599
  0
LINE
  8
0
 10
-95.606
 20
35.5599
 11
-95.1304
 21
35.5955
  0
LINE
  8
0
 10
-95.1304
 20
35.5955
 11
-94.6655
 21
35.4894
  0
LINE
  8
0
 10
-94.6655
 20
35.4894
 11
-94.2524
 21
35.2509
  0
LINE
  8
0
 10
-94.2524
 20
35.2509
 11
-93.928
 21
34.9013
  0
LINE
  8
0
 10
-93.928
 20
34.9013
 11
-93.7211
 21
34.4716
  0
LINE
  8
0
 10
-93.7211
 20
34.4716
 11
-93.65
 21
34
  0
LINE
  8
0
 10
-93.65
 20
34
 11
-93.7211
 21
33.5284
  0
LINE
  8
0
 10
-93.7211
 20
33.5284
 11
-93.928
 21
33.0987
  0
LINE
  8
0
 10
-93.928
 20
33.0987
 11
-94.2524
 21
32.7491
  0
LINE
  8
0
 10
-94.2524
 20
32.7491
 11
-94.6655
 21
32.5106
  0
LINE
  8
0
 10
-94.6655
 20
32.5106
 11
-95.1304
 21
32.4045
  0
LINE
  8
0
 10
-95.1304
 20
32.4045
 11
-95.606
 21
32.4401
  0
LINE
  8
0
 10
-75.606
 20
32.4401
 11
-76.05
 21
32.6144
  0
LINE
  8
0
 10
-76.05
 20
32.6144
 11
-76.4229
 21
32.9117
  0
LINE
  8
0
 10
-76.4229
 20
32.9117
 11
-76.6916
 21
33.3058
  0
LINE
  8
0
 10
-76.6916
 20
33.3058
 11
-76.8321
 21
33.7615
  0
LINE
  8
0
 10
-76.8321
 20
33.7615
 11
-76.8321
 21
34.2385
  0
LINE
  8
0
 10
-76.8321
 20
34.2385
 11
-76.6916
 21
34.6942
  0
LINE
  8
0
 10
-76.6916
 20
34.6942
 11
-76.4229
 21
35.0883
  0
LINE
  8
0
 10
-76.4229
 20
35.0883
 11
-76.05
 21
35.3856
  0
LINE
  8
0
 10
-76.05
 20
35.3856
 11
-75.606
 21
35.5599
  0
LINE
  8
0
 10
-75.606
 20
35.5599
 11
-75.1304
 21
35.5955
  0
LINE
  8
0
 10
-75.1304
 20
35.5955
 11
-74.6655
 21
35.4894
  0
LINE
  8
0
 10
-74.6655
 20
35.4894
 11
-74.2524
 21
35.2509
  0
LINE
  8
0
 10
-74.2524
 20
35.2509
 11
-73.928
 21
34.9013
  0
LINE
  8
0
 10
-73.928
 20
34.9013
 11
-73.7211
 21
34.4716
  0
LINE
  8
0
 10
-73.7211
 20
34.4716
 11
-73.65
 21
34
  0
LINE
  8
0
 10
-73.65
 20
34
 11
-73.7211
 21
33.5284
  0
LINE
  8
0
 10
-73.7211
 20
33.5284
 11
-73.928
 21
33.0987
  0
LINE
  8
0
 10
-73.928
 20
33.0987
 11
-74.2524
 21
32.7491
  0
LINE
  8
0
 10
-74.2524
 20
32.7491
 11
-74.6655
 21
32.5106
  0
LINE
  8
0
 10
-74.6655
 20
32.5106
 11
-75.1304
 21
32.4045
  0
LINE
  8
0
 10
-75.1304
 20
32.4045
 11
-75.606
 21
32.4401
  0
LINE
  8
0
 10
74.894
 20
32.4401
 11
74.45
 21
32.6144
  0
LINE
  8
0
 10
74.45
 20
32.6144
 11
74.0771
 21
32.9117
  0
LINE
  8
0
 10
74.0771
 20
32.9117
 11
73.8085
 21
33.3058
  0
LINE
  8
0
 10
73.8085
 20
33.3058
 11
73.6679
 21
33.7615
  0
LINE
  8
0
 10
73.6679
 20
33.7615
 11
73.6679
 21
34.2385
  0
LINE
  8
0
 10
73.6679
 20
34.2385
 11
73.8085
 21
34.6942
  0
LINE
  8
0
 10
73.8085
 20
34.6942
 11
74.0771
 21
35.0883
  0
LINE
  8
0
 10
74.0771
 20
35.0883
 11
74.45
 21
35.3856
  0
LINE
  8
0
 10
74.45
 20
35.3856
 11
74.894
 21
35.5599
  0
LINE
  8
0
 10
74.894
 20
35.5599
 11
75.3696
 21
35.5955
  0
LINE
  8
0
 10
75.3696
 20
35.5955
 11
75.8345
 21
35.4894
  0
LINE
  8
0
 10
75.8345
 20
35.4894
 11
76.2476
 21
35.2509
  0
LINE
  8
0
 10
76.2476
 20
35.2509
 11
76.572
 21
34.9013
  0
LINE
  8
0
 10
76.572
 20
34.9013
 11
76.7789
 21
34.4716
  0
LINE
  8
0
 10
76.7789
 20
34.4716
 11
76.85
 21
34
  0
LINE
  8
0
 10
76.85
 20
34
 11
76.7789
 21
33.5284
  0
LINE
  8
0
 10
76.7789
 20
33.5284
 11
76.572
 21
33.0987
  0
LINE
  8
0
 10
76.572
 20
33.0987
 11
76.2476
 21
32.7491
  0
LINE
  8
0
 10
76.2476
 20
32.7491
 11
75.8345
 21
32.5106
  0
LINE
  8
0
 10
75.8345
 20
32.5106
 11
75.3696
 21
32.4045
  0
LINE
  8
0
 10
75.3696
 20
32.4045
 11
74.894
 21
32.4401
  0
LINE
  8
0
 10
94.894
 20
32.4401
 11
94.45
 21
32.6144
  0
LINE
  8
0
 10
94.45
 20
32.6144
 11
94.0771
 21
32.9117
  0
LINE
  8
0
 10
94.0771
 20
32.9117
 11
93.8084
 21
33.3058
  0
LINE
  8
0
 10
93.8084
 20
33.3058
 11
93.6679
 21
33.7615
  0
LINE
  8
0
 10
93.6679
 20
33.7615
 11
93.6679
 21
34.2385
  0
LINE
  8
0
 10
93.6679
 20
34.2385
 11
93.8084
 21
34.6942
  0
LINE
  8
0
 10
93.8084
 20
34.6942
 11
94.0771
 21
35.0883
  0
LINE
  8
0
 10
94.0771
 20
35.0883
 11
94.45
 21
35.3856
  0
LINE
  8
0
 10
94.45
 20
35.3856
 11
94.894
 21
35.5599
  0
LINE
  8
0
 10
94.894
 20
35.5599
 11
95.3696
 21
35.5955
  0
LINE
  8
0
 10
95.3696
 20
35.5955
 11
95.8345
 21
35.4894
  0
LINE
  8
0
 10
95.8345
 20
35.4894
 11
96.2476
 21
35.2509
  0
LINE
  8
0
 10
96.2476
 20
35.2509
 11
96.572
 21
34.9013
  0
LINE
  8
0
 10
96.572
 20
34.9013
 11
96.7789
 21
34.4716
  0
LINE
  8
0
 10
96.7789
 20
34.4716
 11
96.85
 21
34
  0
LINE
  8
0
 10
96.85
 20
34
 11
96.7789
 21
33.5284
  0
LINE
  8
0
 10
96.7789
 20
33.5284
 11
96.572
 21
33.0987
  0
LINE
  8
0
 10
96.572
 20
33.0987
 11
96.2476
 21
32.7491
  0
LINE
  8
0
 10
96.2476
 20
32.7491
 11
95.8345
 21
32.5106
  0
LINE
  8
0
 10
95.8345
 20
32.5106
 11
95.3696
 21
32.4045
  0
LINE
  8
0
 10
95.3696
 20
32.4045
 11
94.894
 21
32.4401
  0
LINE
  8
0
 10
40
 20
-30
 11
24
 21
-15
  0
LINE
  8
0
 10
24
 20
-15
 11
24
 21
15
  0
LINE
  8
0
 10
24
 20
15
 11
40
 21
30
  0
LINE
  8
0
 10
40
 20
30
 11
60
 21
30
  0
LINE
  8
0
 10
60
 20
30
 11
76
 21
15
  0
LINE
  8
0
 10
76
 20
15
 11
76
 21
-15
  0
LINE
  8
0
 10
76
 20
-15
 11
60
 21
-30
  0
LINE
  8
0
 10
60
 20
-30
 11
40
 21
-30
  0
LINE
  8
0
 10
-60
 20
-30
 11
-76
 21
-15
  0
LINE
  8
0
 10
-76
 20
-15
 11
-76
 21
15
  0
LINE
  8
0
 10
-76
 20
15
 11
-60
 21
30
  0
LINE
  8
0
 10
-60
 20
30
 11
-40
 21
30
  0
LINE
  8
0
 10
-40
 20
30
 11
-24
 21
15
  0
LINE
  8
0
 10
-24
 20
15
 11
-24
 21
-15
  0
LINE
  8
0
 10
-24
 20
-15
 11
-40
 21
-30
  0
LINE
  8
0
 10
-40
 20
-30
 11
-60
 21
-30
  0
LINE
  8
0
 10
-0.356033
 20
18.4401
 11
-0.799988
 21
18.6143
  0
LINE
  8
0
 10
-0.799988
 20
18.6143
 11
-1.17288
 21
18.9117
  0
LINE
  8
0
 10
-1.17288
 20
18.9117
 11
-1.44154
 21
19.3058
  0
LINE
  8
0
 10
-1.44154
 20
19.3058
 11
-1.58212
 21
19.7615
  0
LINE
  8
0
 10
-1.58212
 20
19.7615
 11
-1.58212
 21
20.2385
  0
LINE
  8
0
 10
-1.58212
 20
20.2385
 11
-1.44154
 21
20.6942
  0
LINE
  8
0
 10
-1.44154
 20
20.6942
 11
-1.17288
 21
21.0883
  0
LINE
  8
0
 10
-1.17288
 20
21.0883
 11
-0.799988
 21
21.3856
  0
LINE
  8
0
 10
-0.799988
 20
21.3856
 11
-0.356033
 21
21.5599
  0
LINE
  8
0
 10
-0.356033
 20
21.5599
 11
0.119568
 21
21.5955
  0
LINE
  8
0
 10
0.119568
 20
21.5955
 11
0.584534
 21
21.4894
  0
LINE
  8
0
 10
0.584534
 20
21.4894
 11
0.997574
 21
21.2509
  0
LINE
  8
0
 10
0.997574
 20
21.2509
 11
1.32198
 21
20.9013
  0
LINE
  8
0
 10
1.32198
 20
20.9013
 11
1.52892
 21
20.4716
  0
LINE
  8
0
 10
1.52892
 20
20.4716
 11
1.59999
 21
20
  0
LINE
  8
0
 10
1.59999
 20
20
 11
1.52892
 21
19.5284
  0
LINE
  8
0
 10
1.52892
 20
19.5284
 11
1.32198
 21
19.0987
  0
LINE
  8
0
 10
1.32198
 20
19.0987
 11
0.997574
 21
18.7491
  0
LINE
  8
0
 10
0.997574
 20
18.7491
 11
0.584534
 21
18.5106
  0
LINE
  8
0
 10
0.584534
 20
18.5106
 11
0.119568
 21
18.4045
  0
LINE
  8
0
 10
0.119568
 20
18.4045
 11
-0.356033
 21
18.4401
  0
LINE
  8
0
 10
-0.356033
 20
-21.5599
 11
-0.799988
 21
-21.3856
  0
LINE
  8
0
 10
-0.799988
 20
-21.3856
 11
-1.17288
 21
-21.0883
  0
LINE
  8
0
 10
-1.17288
 20
-21.0883
 11
-1.44154
 21
-20.6942
  0
LINE
  8
0
 10
-1.44154
 20
-20.6942
 11
-1.58212
 21
-20.2385
  0
LINE
  8
0
 10
-1.58212
 20
-20.2385
 11
-1.58212
 21
-19.7615
  0
LINE
  8
0
 10
-1.58212
 20
-19.7615
 11
-1.44154
 21
-19.3058
  0
LINE
  8
0
 10
-1.44154
 20
-19.3058
 11
-1.17288
 21
-18.9117
  0
LINE
  8
0
 10
-1.17288
 20
-18.9117
 11
-0.799988
 21
-18.6143
  0
LINE
  8
0
 10
-0.799988
 20
-18.6143
 11
-0.356033
 21
-18.4401
  0
LINE
  8
0
 10
-0.356033
 20
-18.4401
 11
0.119568
 21
-18.4045
  0
LINE
  8
0
 10
0.119568
 20
-18.4045
 11
0.584534
 21
-18.5106
  0
LINE
  8
0
 10
0.584534
 20
-18.5106
 11
0.997574
 21
-18.7491
  0
LINE
  8
0
 10
0.997574
 20
-18.7491
 11
1.32198
 21
-19.0987
  0
LINE
  8
0
 10
1.32198
 20
-19.0987
 11
1.52892
 21
-19.5284
  0
LINE
  8
0
 10
1.52892
 20
-19.5284
 11
1.59999
 21
-20
  0
LINE
  8
0
 10
1.59999
 20
-20
 11
1.52892
 21
-20.4716
  0
LINE
  8
0
 10
1.52892
 20
-20.4716
 11
1.32198
 21
-20.9013
  0
LINE
  8
0
 10
1.32198
 20
-20.9013
 11
0.997574
 21
-21.2509
  0
LINE
  8
0
 10
0.997574
 20
-21.2509
 11
0.584534
 21
-21.4894
  0
LINE
  8
0
 10
0.584534
 20
-21.4894
 11
0.119568
 21
-21.5955
  0
LINE
  8
0
 10
0.119568
 20
-21.5955
 11
-0.356033
 21
-21.5599
  0
LINE
  8
0
 10
94.894
 20
-36.5599
 11
94.45
 21
-36.3856
  0
LINE
  8
0
 10
94.45
 20
-36.3856
 11
94.0771
 21
-36.0883
  0
LINE
  8
0
 10
94.0771
 20
-36.0883
 11
93.8084
 21
-35.6942
  0
LINE
  8
0
 10
93.8084
 20
-35.6942
 11
93.6679
 21
-35.2385
  0
LINE
  8
0
 10
93.6679
 20
-35.2385
 11
93.6679
 21
-34.7615
  0
LINE
  8
0
 10
93.6679
 20
-34.7615
 11
93.8084
 21
-34.3058
  0
LINE
  8
0
 10
93.8084
 20
-34.3058
 11
94.0771
 21
-33.9117
  0
LINE
  8
0
 10
94.0771
 20
-33.9117
 11
94.45
 21
-33.6144
  0
LINE
  8
0
 10
94.45
 20
-33.6144
 11
94.894
 21
-33.4401
  0
LINE
  8
0
 10
94.894
 20
-33.4401
 11
95.3696
 21
-33.4045
  0
LINE
  8
0
 10
95.3696
 20
-33.4045
 11
95.8345
 21
-33.5106
  0
LINE
  8
0
 10
95.8345
 20
-33.5106
 11
96.2476
 21
-33.7491
  0
LINE
  8
0
 10
96.2476
 20
-33.7491
 11
96.572
 21
-34.0987
  0
LINE
  8
0
 10
96.572
 20
-34.0987
 11
96.7789
 21
-34.5284
  0
LINE
  8
0
 10
96.7789
 20
-34.5284
 11
96.85
 21
-35
  0
LINE
  8
0
 10
96.85
 20
-35
 11
96.7789
 21
-35.4716
  0
LINE
  8
0
 10
96.7789
 20
-35.4716
 11
96.572
 21
-35.9013
  0
LINE
  8
0
 10
96.572
 20
-35.9013
 11
96.2476
 21
-36.2509
  0
LINE
  8
0
 10
96.2476
 20
-36.2509
 11
95.8345
 21
-36.4894
  0
LINE
  8
0
 10
95.8345
 20
-36.4894
 11
95.3696
 21
-36.5955
  0
LINE
  8
0
 10
95.3696
 20
-36.5955
 11
94.894
 21
-36.5599
  0
LINE
  8
0
 10
74.894
 20
-36.5599
 11
74.45
 21
-36.3856
  0
LINE
  8
0
 10
74.45
 20
-36.3856
 11
74.0771
 21
-36.0883
  0
LINE
  8
0
 10
74.0771
 20
-36.0883
 11
73.8085
 21
-35.6942
  0
LINE
  8
0
 10
73.8085
 20
-35.6942
 11
73.6679
 21
-35.2385
  0
LINE
  8
0
 10
73.6679
 20
-35.2385
 11
73.6679
 21
-34.7615
  0
LINE
  8
0
 10
73.6679
 20
-34.7615
 11
73.8085
 21
-34.3058
  0
LINE
  8
0
 10
73.8085
 20
-34.3058
 11
74.0771
 21
-33.9117
  0
LINE
  8
0
 10
74.0771
 20
-33.9117
 11
74.45
 21
-33.6144
  0
LINE
  8
0
 10
74.45
 20
-33.6144
 11
74.894
 21
-33.4401
  0
LINE
  8
0
 10
74.894
 20
-33.4401
 11
75.3696
 21
-33.4045
  0
LINE
  8
0
 10
75.3696
 20
-33.4045
 11
75.8345
 21
-33.5106
  0
LINE
  8
0
 10
75.8345
 20
-33.5106
 11
76.2476
 21
-33.7491
  0
LINE
  8
0
 10
76.2476
 20
-33.7491
 11
76.572
 21
-34.0987
  0
LINE
  8
0
 10
76.572
 20
-34.0987
 11
76.7789
 21
-34.5284
  0
LINE
  8
0
 10
76.7789
 20
-34.5284
 11
76.85
 21
-35
  0
LINE
  8
0
 10
76.85
 20
-35
 11
76.7789
 21
-35.4716
  0
LINE
  8
0
 10
76.7789
 20
-35.4716
 11
76.572
 21
-35.9013
  0
LINE
  8
0
 10
76.572
 20
-35.9013
 11
76.2476
 21
-36.2509
  0
LINE
  8
0
 10
76.2476
 20
-36.2509
 11
75.8345
 21
-36.4894
  0
LINE
  8
0
 10
75.8345
 20
-36.4894
 11
75.3696
 21
-36.5955
  0
LINE
  8
0
 10
75.3696
 20
-36.5955
 11
74.894
 21
-36.5599
  0
LINE
  8
0
 10
-75.606
 20
-36.5599
 11
-76.05
 21
-36.3856
  0
LINE
  8
0
 10
-76.05
 20
-36.3856
 11
-76.4229
 21
-36.0883
  0
LINE
  8
0
 10
-76.4229
 20
-36.0883
 11
-76.6916
 21
-35.6942
  0
LINE
  8
0
 10
-76.6916
 20
-35.6942
 11
-76.8321
 21
-35.2385
  0
LINE
  8
0
 10
-76.8321
 20
-35.2385
 11
-76.8321
 21
-34.7615
  0
LINE
  8
0
 10
-76.8321
 20
-34.7615
 11
-76.6916
 21
-34.3058
  0
LINE
  8
0
 10
-76.6916
 20
-34.3058
 11
-76.4229
 21
-33.9117
  0
LINE
  8
0
 10
-76.4229
 20
-33.9117
 11
-76.05
 21
-33.6144
  0
LINE
  8
0
 10
-76.05
 20
-33.6144
 11
-75.606
 21
-33.4401
  0
LINE
  8
0
 10
-75.606
 20
-33.4401
 11
-75.1304
 21
-33.4045
  0
LINE
  8
0
 10
-75.1304
 20
-33.4045
 11
-74.6655
 21
-33.5106
  0
LINE
  8
0
 10
-74.6655
 20
-33.5106
 11
-74.2524
 21
-33.7491
  0
LINE
  8
0
 10
-74.2524
 20
-33.7491
 11
-73.928
 21
-34.0987
  0
LINE
  8
0
 10
-73.928
 20
-34.0987
 11
-73.7211
 21
-34.5284
  0
LINE
  8
0
 10
-73.7211
 20
-34.5284
 11
-73.65
 21
-35
  0
LINE
  8
0
 10
-73.65
 20
-35
 11
-73.7211
 21
-35.4716
  0
LINE
  8
0
 10
-73.7211
 20
-35.4716
 11
-73.928
 21
-35.9013
  0
LINE
  8
0
 10
-73.928
 20
-35.9013
 11
-74.2524
 21
-36.2509
  0
LINE
  8
0
 10
-74.2524
 20
-36.2509
 11
-74.6655
 21
-36.4894
  0
LINE
  8
0
 10
-74.6655
 20
-36.4894
 11
-75.1304
 21
-36.5955
  0
LINE
  8
0
 10
-75.1304
 20
-36.5955
 11
-75.606
 21
-36.5599
  0
LINE
  8
0
 10
-95.606
 20
-36.5599
 11
-96.05
 21
-36.3856
  0
LINE
  8
0
 10
-96.05
 20
-36.3856
 11
-96.4229
 21
-36.0883
  0
LINE
  8
0
 10
-96.4229
 20
-36.0883
 11
-96.6915
 21
-35.6942
  0
LINE
  8
0
 10
-96.6915
 20
-35.6942
 11
-96.8321
 21
-35.2385
  0
LINE
  8
0
 10
-96.8321
 20
-35.2385
 11
-96.8321
 21
-34.7615
  0
LINE
  8
0
 10
-96.8321
 20
-34.7615
 11
-96.6915
 21
-34.3058
  0
LINE
  8
0
 10
-96.6915
 20
-34.3058
 11
-96.4229
 21
-33.9117
  0
LINE
  8
0
 10
-96.4229
 20
-33.9117
 11
-96.05
 21
-33.6144
  0
LINE
  8
0
 10
-96.05
 20
-33.6144
 11
-95.606
 21
-33.4401
  0
LINE
  8
0
 10
-95.606
 20
-33.4401
 11
-95.1304
 21
-33.4045
  0
LINE
  8
0
 10
-95.1304
 20
-33.4045
 11
-94.6655
 21
-33.5106
  0
LINE
  8
0
 10
-94.6655
 20
-33.5106
 11
-94.2524
 21
-33.7491
  0
LINE
  8
0
 10
-94.2524
 20
-33.7491
 11
-93.928
 21
-34.0987
  0
LINE
  8
0
 10
-93.928
 20
-34.0987
 11
-93.7211
 21
-34.5284
  0
LINE
  8
0
 10
-93.7211
 20
-34.5284
 11
-93.65
 21
-35
  0
LINE
  8
0
 10
-93.65
 20
-35
 11
-93.7211
 21
-35.4716
  0
LINE
  8
0
 10
-93.7211
 20
-35.4716
 11
-93.928
 21
-35.9013
  0
LINE
  8
0
 10
-93.928
 20
-35.9013
 11
-94.2524
 21
-36.2509
  0
LINE
  8
0
 10
-94.2524
 20
-36.2509
 11
-94.6655
 21
-36.4894
  0
LINE
  8
0
 10
-94.6655
 20
-36.4894
 11
-95.1304
 21
-36.5955
  0
LINE
  8
0
 10
-95.1304
 20
-36.5955
 11
-95.606
 21
-36.5599
  0
LINE
  8
0
 10
-68
 20
-75
 11
-28
 21
-35
  0
LINE
  8
0
 10
-28
 20
-35
 11
28
 21
-35
  0
LINE
  8
0
 10
28
 20
-35
 11
68
 21
-75
  0
LINE
  8
0
 10
68
 20
-75
 11
-68
 21
-75
  0
LINE
  8
0
 10
105.144
 20
-107.06
 11
104.7
 21
-106.886
  0
LINE
  8
0
 10
104.7
 20
-106.886
 11
104.327
 21
-106.588
  0
LINE
  8
0
 10
104.327
 20
-106.588
 11
104.058
 21
-106.194
  0
LINE
  8
0
 10
104.058
 20
-106.194
 11
103.918
 21
-105.738
  0
LINE
  8
0
 10
103.918
 20
-105.738
 11
103.918
 21
-105.262
  0
LINE
  8
0
 10
103.918
 20
-105.262
 11
104.058
 21
-104.806
  0
LINE
  8
0
 10
104.058
 20
-104.806
 11
104.327
 21
-104.412
  0
LINE
  8
0
 10
104.327
 20
-104.412
 11
104.7
 21
-104.114
  0
LINE
  8
0
 10
104.7
 20
-104.114
 11
105.144
 21
-103.94
  0
LINE
  8
0
 10
105.144
 20
-103.94
 11
105.62
 21
-103.904
  0
LINE
  8
0
 10
105.62
 20
-103.904
 11
106.085
 21
-104.011
  0
LINE
  8
0
 10
106.085
 20
-104.011
 11
106.498
 21
-104.249
  0
LINE
  8
0
 10
106.498
 20
-104.249
 11
106.822
 21
-104.599
  0
LINE
  8
0
 10
106.822
 20
-104.599
 11
107.029
 21
-105.028
  0
LINE
  8
0
 10
107.029
 20
-105.028
 11
107.1
 21
-105.5
  0
LINE
  8
0
 10
107.1
 20
-105.5
 11
107.029
 21
-105.972
  0
LINE
  8
0
 10
107.029
 20
-105.972
 11
106.822
 21
-106.401
  0
LINE
  8
0
 10
106.822
 20
-106.401
 11
106.498
 21
-106.751
  0
LINE
  8
0
 10
106.498
 20
-106.751
 11
106.085
 21
-106.989
  0
LINE
  8
0
 10
106.085
 20
-106.989
 11
105.62
 21
-107.096
  0
LINE
  8
0
 10
105.62
 20
-107.096
 11
105.144
 21
-107.06
  0
LINE
  8
0
 10
-105.856
 20
-107.06
 11
-106.3
 21
-106.886
  0
LINE
  8
0
 10
-106.3
 20
-106.886
 11
-106.673
 21
-106.588
  0
LINE
  8
0
 10
-106.673
 20
-106.588
 11
-106.942
 21
-106.194
  0
LINE
  8
0
 10
-106.942
 20
-106.194
 11
-107.082
 21
-105.738
  0
LINE
  8
0
 10
-107.082
 20
-105.738
 11
-107.082
 21
-105.262
  0
LINE
  8
0
 10
-107.082
 20
-105.262
 11
-106.942
 21
-104.806
  0
LINE
  8
0
 10
-106.942
 20
-104.806
 11
-106.673
 21
-104.412
  0
LINE
  8
0
 10
-106.673
 20
-104.412
 11
-106.3
 21
-104.114
  0
LINE
  8
0
 10
-106.3
 20
-104.114
 11
-105.856
 21
-103.94
  0
LINE
  8
0
 10
-105.856
 20
-103.94
 11
-105.38
 21
-103.904
  0
LINE
  8
0
 10
-105.38
 20
-103.904
 11
-104.915
 21
-104.011
  0
LINE
  8
0
 10
-104.915
 20
-104.011
 11
-104.502
 21
-104.249
  0
LINE
  8
0
 10
-104.502
 20
-104.249
 11
-104.178
 21
-104.599
  0
LINE
  8
0
 10
-104.178
 20
-104.599
 11
-103.971
 21
-105.028
  0
LINE
  8
0
 10
-103.971
 20
-105.028
 11
-103.9
 21
-105.5
  0
LINE
  8
0
 10
-103.9
 20
-105.5
 11
-103.971
 21
-105.972
  0
LINE
  8
0
 10
-103.971
 20
-105.972
 11
-104.178
 21
-106.401
  0
LINE
  8
0
 10
-104.178
 20
-106.401
 11
-104.502
 21
-106.751
  0
LINE
  8
0
 10
-104.502
 20
-106.751
 11
-104.915
 21
-106.989
  0
LINE
  8
0
 10
-104.915
 20
-106.989
 11
-105.38
 21
-107.096
  0
LINE
  8
0
 10
-105.38
 20
-107.096
 11
-105.856
 21
-107.06
  0
ENDSEC
  0
SECTION
  2
OBJECTS
  0
DICTIONARY
  0
ENDSEC
  0
EOF
